<?xml version="1.0" standalone="no"?>
<!DOCTYPE svg PUBLIC "-//W3C//DTD SVG 1.1//EN" "http://www.w3.org/Graphics/SVG/1.1/DTD/svg11.dtd" >
<svg xmlns="http://www.w3.org/2000/svg">
<metadata>
This is a custom SVG webfont generated by Font Squirrel.
Copyright   : Typeface  your company 2006 All Rights Reserved
</metadata>
<defs>
<font id="ChristinesfontRegular" horiz-adv-x="1139" >
<font-face units-per-em="2048" ascent="1638" descent="-410" />
<missing-glyph horiz-adv-x="569" />
<glyph unicode=" "  horiz-adv-x="569" />
<glyph unicode="&#x09;" horiz-adv-x="569" />
<glyph unicode="&#xa0;" horiz-adv-x="569" />
<glyph unicode="!" horiz-adv-x="457" d="M0 83v68l120 69q151 0 187 -82q-25 -138 -222 -138zM102 647l35 275v289q0 385 102 385h34q116 0 154 -83l-17 -137v-495q0 -303 -85 -303l-52 -28h-85q-51 11 -86 97z" />
<glyph unicode="&#x22;" horiz-adv-x="556" d="M56 1343v27q49 208 139 208h38l47 -30l10 -48q-27 -30 -36 -84l2 -60l12 -49l-9 -33l-39 -31h-76q-88 45 -88 100zM304 1343v27q49 208 139 208h38l47 -30l10 -48q-27 -30 -35 -88l6 -50l7 -55l-9 -33l-39 -31h-76q-88 45 -88 100z" />
<glyph unicode="#" horiz-adv-x="1551" d="M17 955q0 94 244 108h618q395 0 504 53h82l81 -80v-68q0 -106 -195 -106l-95 6l-426 -20h-32l-61 -6l-62 3l-50 -3h-69l-62 -4l-70 -3l-37 3l-46 -3h-161q-163 0 -163 120zM25 534q0 100 244 114h618q395 0 504 56h82l81 -84v-71q0 -113 -195 -113l-95 7l-426 -21h-32 l-61 -7l-62 4l-50 -4h-69l-62 -3l-70 -4l-37 4l-46 -4h-161q-163 0 -163 126zM419 1106l4 37l-4 46v161q0 163 128 163q101 0 115 -244v-618q0 -395 57 -504v-82l-85 -81h-73q-114 0 -114 195l8 95l-22 426v32l-7 61l4 62l-4 50v69l-3 62zM876 1128l4 37l-4 46v161 q0 163 128 163q101 0 115 -244v-618q0 -395 57 -504v-82l-85 -81h-73q-114 0 -114 195l8 95l-22 426v32l-7 61l4 62l-4 50v69l-3 62z" />
<glyph unicode="$" />
<glyph unicode="%" horiz-adv-x="1228" d="M52 1390v16q33 92 106 92h93q31 -9 80 -124q0 -139 -106 -139l-14 16l-13 -16h-13q-84 51 -133 155zM106 37q320 540 708 1469q86 156 168 180h68l67 -69v-42q0 -57 -472 -1081l-303 -554l-84 -14q-152 55 -152 111zM907 189v16q35 95 112 95h97q33 -9 85 -127 q0 -142 -112 -142l-14 16l-14 -16h-14q-88 52 -140 158z" />
<glyph unicode="&#x26;" horiz-adv-x="1116" d="M37 1115q0 192 234 345v-15l101 30v-15l16 15h118q274 -60 284 -285l-17 -15l17 -15v-45l-84 -299q-7 -22 -133 -210l267 -240q0 86 184 105l51 -75q-19 -119 -84 -119v-30q117 -104 117 -165q-11 -105 -50 -105h-84l-134 75q-76 0 -300 -82l-129 14q-228 -21 -326 173 l6 173q54 161 130 261q-184 328 -184 524zM261 1055l23 -67l60 -105l70 -90q74 148 89 254l2 90q-15 82 -84 90q-213 -24 -160 -172zM352 270q-80 -167 293 -68l-151 149l-105 61z" />
<glyph unicode="'" horiz-adv-x="337" d="M56 1335v27q49 208 139 208h38l47 -30l10 -48q-27 -30 -36 -84l2 -60l12 -49l-9 -33l-39 -31h-76q-88 45 -88 100z" />
<glyph unicode="(" horiz-adv-x="682" d="M0 622q0 571 498 1004l99 14h17l83 -57v-14l-348 -509q-83 -237 -83 -381v-128q0 -195 182 -353q107 -37 116 -71q0 -127 -215 -127q-349 162 -349 622z" />
<glyph unicode=")" horiz-adv-x="622" d="M0 1553v14l54 73h107q342 -384 391 -755l40 -217q0 -334 -309 -653l-68 -15h-40q-108 7 -108 116q27 0 27 73q95 0 256 392l-14 14q10 87 27 87q-84 504 -282 740q-81 51 -81 131z" />
<glyph unicode="*" horiz-adv-x="607" d="M120 1399q0 23 65 47q0 81 44 81q39 0 65 69h55q16 0 32 -46l55 11h43q22 0 22 -34l-22 -58h44l54 -12v-23l-87 -81l11 -46l-55 -23l-43 11q0 -58 -33 -104l-87 35l-11 -12h-11q-87 21 -87 46v70q-54 0 -54 69z" />
<glyph unicode="+" horiz-adv-x="659" d="M35 537h15l-15 11v11q9 33 119 33h104q400 0 400 -66v-33q-41 -66 -119 -66l-281 11l-82 12l43 -15q-184 26 -184 102zM272 302v104q0 400 66 400h33q66 -41 66 -119l-11 -281l-12 -82l15 43q-26 -184 -102 -184v15l-11 -15h-11q-33 9 -33 119z" />
<glyph unicode="," horiz-adv-x="427" d="M149 78l10 48l47 30h38q90 0 139 -208v-27q0 -55 -88 -100h-76l-39 31l-9 33l36 45l6 55q-37 63 -64 93z" />
<glyph unicode="-" horiz-adv-x="637" d="M59 664h13l-13 14v14q8 42 101 42h89q342 0 342 -84v-42q-35 -84 -101 -84l-241 14l-13 -14h-12q-165 44 -165 140z" />
<glyph unicode="." horiz-adv-x="322" d="M30 119v12q27 71 86 71h75q25 -7 65 -95q0 -107 -86 -107l-11 12l-11 -12h-10q-68 39 -108 119z" />
<glyph unicode="/" horiz-adv-x="1131" d="M98 29q320 540 708 1469q86 156 168 180h68l67 -69v-42q0 -57 -472 -1081l-303 -554l-84 -14q-152 55 -152 111z" />
<glyph unicode="0" d="M30 544q0 741 380 971l108 29h231q186 -134 311 -507l41 -290h-14l14 -43q0 -439 -474 -696h-28q-391 0 -501 203q-68 109 -68 333zM233 544q0 -253 149 -333h177q312 223 312 522q0 289 -244 623l-82 14q-312 -182 -312 -826z" />
<glyph unicode="1" horiz-adv-x="494" d="M60 114l32 43l-16 14l48 570l-16 57h16l-16 14v314q5 242 32 242l-16 14v15l16 14v14l-16 14v15q0 91 112 142h15q117 0 176 -128l-32 -71l16 -15l-32 -327h-16l16 -15v-712l-16 -200l16 -42q-78 -70 -191 -86q-52 0 -128 114z" />
<glyph unicode="2" d="M0 167v33q0 306 333 334l222 -84q205 322 205 584q-123 267 -253 267l-222 -84l-16 17h-16l-47 -17l-63 101q0 151 364 233q179 -33 301 -133q222 -217 222 -451q0 -222 -254 -650h16q32 -70 285 -117l32 -100l-79 -100h-190q-111 0 -270 133q-75 -66 -285 -116 q-285 48 -285 150z" />
<glyph unicode="3" horiz-adv-x="959" d="M0 1377q40 136 389 166q389 -52 389 -333q0 -118 -202 -287q360 -222 360 -484q-107 -409 -331 -409q0 -21 -130 -30q-314 0 -345 212h43q0 45 29 45l273 -30q202 0 202 272q-63 171 -288 257q-245 0 -245 167l302 196l72 91v76l-144 30l-230 -60q-144 0 -144 121z" />
<glyph unicode="4" horiz-adv-x="951" d="M0 617l30 247l-15 15l15 77v170l16 62l-16 15v16q21 262 92 262h30q122 0 153 -139l-31 -586l-15 -16h15l244 31v-15l91 15l15 540v93l16 15l-16 16v15q0 88 168 108l107 -139l-31 -648l-15 -15q76 -40 76 -124q0 -61 -61 -61l-61 -556h-15l-152 -15q-92 69 -92 139 l46 277v124h-46l-213 -31v15l-167 -30q-168 20 -168 123z" />
<glyph unicode="5" horiz-adv-x="966" d="M0 937q42 75 42 200v107l14 16l-14 15q34 246 113 246h85l56 -16l14 16h14l14 -16h14l183 31v-15l14 15h254q85 -34 85 -154q0 -76 -437 -76q-169 0 -169 -77l-14 -169h183q221 0 437 -338q56 -165 56 -307q-78 -225 -225 -292q0 -42 -324 -123q-339 51 -339 184v31 l71 61h56l212 -46q295 56 295 246q0 215 -211 353l-14 -15l-70 15l-43 -15v15l-197 -76q-136 0 -155 184z" />
<glyph unicode="6" horiz-adv-x="974" d="M0 386l15 51l-15 16q136 991 249 991q0 57 73 84q146 -39 146 -168v-17q-117 -159 -219 -755l-15 -185l7 -73l59 164q-37 95 314 362l59 17q247 0 278 -470v-34q0 -229 -278 -352l-205 -17q-468 0 -468 386zM483 218h14q220 38 220 252v17l-29 84q-123 -64 -205 -336v-17 z" />
<glyph unicode="7" horiz-adv-x="1071" d="M0 1429q0 84 153 96h444l76 16v-16l230 48q92 0 153 -161q-328 -749 -505 -1316q-61 -96 -153 -96v16l-15 -16h-16q-107 38 -107 64l15 16l-15 16v32l123 257l321 915l-15 -16h-16l-15 16l-15 -16h-322l-137 -16q-184 37 -184 161z" />
<glyph unicode="8" horiz-adv-x="1056" d="M0 257v48q74 400 314 692q-120 70 -129 305h15l-15 16q8 247 328 225h128q174 -1 357 -129l14 -16v-48l-14 -16l28 -80l-85 -65h-15q-47 0 -99 49q0 -65 -228 -306q199 -322 199 -450h-14l14 -48q0 -257 -256 -402l-72 -32q-470 39 -470 257zM228 347l23 -99l105 -39 q214 60 214 241v64l-114 274q-189 -218 -228 -441zM428 1270l28 -113h14q87 -9 144 160l-87 15q-99 -35 -99 -62z" />
<glyph unicode="9" horiz-adv-x="1034" d="M0 889q0 422 318 646l117 16q234 -38 234 -81q328 -140 335 -242l-17 -16l17 -113q-67 -320 -67 -534v-242l17 -113l-17 -16l11 -47l-7 -63l-71 -84h-150q-101 68 -101 129q21 210 50 210l-16 16v259l-134 -32q-519 71 -519 307zM251 921q55 -113 218 -113q94 0 200 129 v210q-43 121 -134 162l-16 16h-34q-234 -165 -234 -404z" />
<glyph unicode=":" horiz-adv-x="412" d="M82 173q0 69 101 121h38q62 0 125 -121v-15q-25 -151 -125 -151q-139 0 -139 166zM82 717v45q3 42 113 91q164 0 164 -136q-48 -121 -126 -121q-109 35 -151 121z" />
<glyph unicode=";" horiz-adv-x="509" d="M105 700v41q4 38 127 83q183 0 183 -124q-54 -111 -141 -111q-122 32 -169 111zM189 243v42l71 55h42q100 0 155 -318v-41q0 -85 -99 -153h-84l-56 56v41l28 42v124q0 79 -57 152z" />
<glyph unicode="&#x37e;" horiz-adv-x="509" d="M105 700v41q4 38 127 83q183 0 183 -124q-54 -111 -141 -111q-122 32 -169 111zM189 243v42l71 55h42q100 0 155 -318v-41q0 -85 -99 -153h-84l-56 56v41l28 42v124q0 79 -57 152z" />
<glyph unicode="&#x3c;" horiz-adv-x="1116" d="M0 735q0 278 241 313v16q164 0 272 -266h15q265 266 362 266h121l90 -94v-62q0 -198 -452 -861l-121 -47q-200 0 -483 563z" />
<glyph unicode="=" horiz-adv-x="644" d="M21 518h15l-15 12v11q9 34 117 34h103q396 0 396 -68v-34q-41 -68 -117 -68l-253 11l-62 5l-55 5q-129 14 -129 92zM21 732h15l-15 11v11q9 33 119 33h104q400 0 400 -66v-33q-41 -66 -119 -66l-281 11l-82 12l43 -15q-184 26 -184 102z" />
<glyph unicode="&#x3e;" horiz-adv-x="1086" d="M0 458q21 87 206 212l-95 317q109 124 143 124q99 0 302 -229q275 264 365 264q79 0 143 -106v-35q0 -42 -222 -388l-16 -70q162 -93 174 -141v-106q0 -88 -222 -106l-47 35q-30 0 -159 -229h-80q-159 0 -159 264q-26 71 -95 71h-143q-69 44 -95 123z" />
<glyph unicode="?" horiz-adv-x="884" d="M0 1362q0 161 246 205l231 29q332 -116 332 -307v-30q0 -278 -404 -512q-73 -76 -73 -132l15 -132l-44 -58l-14 14l-43 -14q-159 33 -159 161v29q0 258 390 483q86 93 86 220l-101 58q-101 0 -346 -87q-76 0 -116 73zM58 132v14q38 118 188 118q130 -35 130 -162 q-24 -66 -87 -102l-15 15l-14 -15h-29q-101 0 -173 132z" />
<glyph unicode="@" horiz-adv-x="1521" d="M0 562v253q0 266 355 580q235 163 422 163h34q276 0 574 -399q68 -147 68 -344v-217q-140 -272 -355 -272l-17 -18q-146 0 -253 127q-68 -73 -186 -73q-321 38 -321 345v54q229 380 507 380l17 18h17q0 -32 152 -90q50 -82 50 -362v-73l34 -36h34q84 72 84 163v109 q0 317 -422 434q-376 0 -557 -597v-109q0 -285 219 -381h304q169 0 169 -126q-112 -91 -253 -91h-220q-357 0 -456 562zM574 598l51 -18q118 53 118 163v127q-169 -121 -169 -218v-54z" />
<glyph unicode="A" horiz-adv-x="1318" d="M1 125q87 191 399 1196q99 230 243 230h86q73 0 225 -504q121 -203 173 -432q116 -366 191 -448v-42q0 -79 -87 -116h-34q-208 0 -208 202l-104 317h-104l-18 14l-51 -14l-295 -15l-17 15q-135 -533 -243 -533q-156 18 -156 130zM483 749l208 15h138v15 q-173 388 -173 478l-138 -329l-8 -29l-12 -43q-15 -34 -15 -107z" />
<glyph unicode="B" horiz-adv-x="1064" d="M1 915h14l-14 14v14l14 14l-14 14v433q0 77 85 112l127 -28q98 70 255 70h85q382 -98 382 -322q-40 -154 -226 -293v-14q240 0 325 -350v-98q0 -321 -552 -461h-28l-156 14l-71 -42h-14q-170 0 -170 168v28l15 14l-15 14l15 56zM259 960l12 -13v-12q176 0 407 276l13 51 l-102 75h-114q-78 0 -216 -75v-302zM271 695q30 -465 77 -465q402 0 445 314q0 132 -178 164h-13l-74 25l-108 -25l-47 -3z" />
<glyph unicode="C" horiz-adv-x="1214" d="M0 644h16l-16 14v97q0 428 476 734l131 55v-14l131 28q328 -86 328 -249l-82 -56h-49q-67 0 -180 97h-50q-443 -209 -443 -678q0 -471 542 -471l279 55h65l66 -69v-14q0 -147 -443 -180v14l-16 -14q-468 0 -689 402l-50 152h17z" />
<glyph unicode="D" horiz-adv-x="1131" d="M0 1012l16 15l-16 72v100l16 14l-16 15q0 330 187 330q428 -43 578 -129q312 -239 312 -460l17 -62l29 -177l1 67v-158q0 -216 -437 -545q-250 -101 -531 -101q-115 0 -140 244l31 72l-16 14v29h16l-31 617zM265 1116l8 -155l7 -143l1 -49q10 -542 78 -542 q298 93 453 337l38 110l-7 109q0 365 -234 498q-132 73 -203 73h-109l-32 -29v-209z" />
<glyph unicode="E" horiz-adv-x="1146" d="M0 146l48 191v366l16 14l-16 15v14l16 366l-32 308q0 71 144 117l113 -44q425 73 770 73q80 -76 80 -132q0 -65 -770 -131q0 -30 -64 -30v-161l16 -161l-16 -73h16l465 15h48q32 0 70 -15l10 -44q0 -146 -385 -146l-224 -44v-337l16 -73l642 44q93 0 112 -146 q0 -59 -530 -103v15l-320 -44q-177 0 -177 88z" />
<glyph unicode="F" horiz-adv-x="1071" d="M7 410l15 395l-15 629q30 92 76 103l166 -15l560 44v-15l15 15h91q151 -29 151 -73v-59q0 -68 -711 -102l-121 -29l15 -147v-132l15 -58l-15 -59v-14l15 -15v-15l15 15h106l15 -15l15 15l182 -15h166l61 -58l-15 -15l15 -14v-15q-15 -83 -575 -103l15 -14l-15 -88 q19 -425 45 -425q0 -146 -136 -146h-15q-121 18 -121 88z" />
<glyph unicode="G" horiz-adv-x="1341" d="M7 624h15l-15 14q0 582 326 758q209 162 326 162q290 0 385 -162v-41l-74 -68h-89q-65 82 -192 82q-267 -76 -430 -407l-15 -94l15 -14l-15 -67v-122l15 -54l-15 -14v-14q71 -365 311 -365l60 -14q254 0 340 231l60 135h-15l-415 -14l-59 82v54q24 54 103 54h104 q201 0 326 27v-14l15 14h133q104 -21 104 -149q-100 -174 -119 -284q-28 -2 -88 -136q-183 -189 -415 -189l-15 14l-15 -14h-15q-431 0 -578 352z" />
<glyph unicode="H" horiz-adv-x="1154" d="M20 887l3 56v57q0 553 81 553l65 28q98 0 145 -99l-32 -426v-127l550 -57v14l-16 43l16 269v128q0 142 130 142h16q62 0 146 -71l-33 -483l7 -184l1 -76l-8 -59l-3 -59l-4 -54l-5 -46l-1 -89l4 -270q-51 -45 -98 -51l-55 -7l-44 7l-32 18q-41 5 -69 161h16l-16 14l32 454 h-16l-502 43v-57l16 -440l-16 -14v-14l16 -42h-16l16 -15v-14q-21 -127 -145 -127l-20 -12l-25 3l-36 9l-65 85l4 290l-4 149l1 98l-1 72l1 66l-1 105z" />
<glyph unicode="I" horiz-adv-x="1270" d="M-8 1348v87l93 73q618 29 901 73q56 0 140 -73q0 -146 -295 -146l-140 -14l-62 -29l-16 -88l16 -58h-16l16 -14v-102l16 -102h-16l16 -15v-15q15 -587 46 -655l-15 -15h31q326 26 326 59l15 -15l78 15h31q109 -65 109 -146q0 -73 -311 -88l-15 -14h-16v14l-746 -87 q-170 0 -170 146q58 87 388 87v15l3 30l3 45l-3 51v41l12 197l-46 670h15l-15 44l-295 -29q0 21 -62 43z" />
<glyph unicode="J" horiz-adv-x="951" d="M-23 286l56 57h55q130 0 259 -128q241 59 241 171l-74 1015l-18 43q0 129 129 129h74l93 -71q0 -242 33 -471l4 -59l45 -266l-27 52q37 0 49 -379q-19 -207 -104 -207q0 -48 -296 -172l-19 14l-18 -14h-112q-370 67 -370 286z" />
<glyph unicode="K" horiz-adv-x="996" d="M-23 118v118l18 56l6 60l2 100l7 109l5 66l2 64l-2 25l-5 37v547q0 266 101 266h17q150 -19 150 -133v-38l-1 -44l-2 -45l-8 -42l5 -41l-2 -23l-11 -40l2 -22h-6v-38l6 -36l-2 -34l4 -18l-6 -26l8 -53l13 -106q333 306 452 488l100 15q134 0 134 -133q-32 -91 -502 -503 l-16 -14v-15q458 -321 535 -591q-23 -74 -117 -74q-218 18 -218 163q-179 242 -351 325h-17l8 -33l9 -86l6 -59l-6 -59q0 -207 -140 -225l-11 4l-23 -12l-40 8q-10 -5 -19 -5q-43 0 -85 97z" />
<glyph unicode="L" horiz-adv-x="974" d="M0 132l38 364l4 64l5 114l-9 119l-5 95v185l-16 108h16l-16 15v216q0 124 167 139q72 -20 134 -93l-17 -185v-246l2 -66l-2 -42l17 -155v-370q0 -114 50 -123l402 46q184 -31 184 -154q0 -82 -531 -118l-222 -52q-184 26 -184 139h-17z" />
<glyph unicode="M" horiz-adv-x="1363" d="M30 128l28 301l-14 45l14 15v15l-14 15v15l14 90l-14 76h14l-14 15v346q4 193 5 193l1 -12l8 135v15q0 130 166 151h56q58 -32 166 -316q194 -238 194 -316h14q329 368 365 474l23 98v15q0 39 111 60h55q28 0 97 -120q-27 -127 -27 -332v-195l13 -61l-13 -60v-15l13 -151 h-13l13 -15v-15l-13 -15l55 -481q-51 -136 -139 -136q-135 0 -137 405l-1 -105l7 -157l-7 745v196q-236 -259 -319 -437l-139 -30q-71 0 -208 347l-138 195v-150l-14 -15l14 -15v-151l14 -75h-14l14 -15v-241l14 -377l-111 -45h-28q-111 19 -111 91z" />
<glyph unicode="N" horiz-adv-x="1184" d="M14 1125l16 44l-16 89h16l-16 14v15l16 15l-16 14v206l78 59q230 0 297 -250l452 -720h16l47 441l-16 14l16 221v147l78 103q138 0 187 -88l-31 -324l15 -14v-15l-46 -573v-89l-32 -161v-89q-49 -88 -171 -88h-32q-79 0 -218 368q-316 481 -359 602l-31 -29l15 -88h-15 l15 -15v-617l32 -162q0 -147 -125 -147h-78l-78 88v162l15 279l-15 44h15l-15 15l15 74l-15 14v15l15 59l-15 59h15l-15 14v15l15 15l-15 14v191z" />
<glyph unicode="O" horiz-adv-x="1228" d="M8 619q0 718 561 938l197 16q193 -83 289 -282q136 -315 136 -485q-11 -234 -30 -234l15 -16v-15q-115 -356 -273 -438q-178 -110 -243 -110q-531 88 -531 235q-121 124 -121 391zM220 666q0 -372 243 -423l152 -31q318 104 318 579q0 254 -212 547l-61 32 q-221 -70 -333 -266l-91 -266l15 -16z" />
<glyph unicode="P" horiz-adv-x="1071" d="M0 1449v29l95 73h15l16 -14q71 29 205 29h206q489 -118 489 -381q0 -399 -268 -468q-118 -44 -379 -73l-79 15v-161q0 -126 47 -235h-16l32 -87l-16 -15v-15l16 -44q0 -40 -110 -102h-111q-79 59 -79 132v117q0 146 -31 146l15 147v234l16 73l-16 88v161l-15 73h15 q-47 165 -47 278zM268 1361l48 -322l-16 -15v-14l16 -161l47 14l47 -14q348 0 348 278v44q-37 172 -379 205z" />
<glyph unicode="Q" horiz-adv-x="1236" d="M22 764q62 367 200 569q230 240 461 240q205 -48 246 -150q62 -55 246 -599l31 -150h-15l15 -15v-15q0 -181 -108 -389v-15q93 -107 93 -165v-60l-62 -60h-138q-77 42 -77 120q-192 -75 -338 -75q-539 107 -539 524zM237 719q0 -449 185 -449l138 -75q92 0 200 90v15 l-246 299v60q39 75 123 75q141 0 261 -240h16l31 120q0 248 -277 779h-16q-186 -72 -292 -239q-123 -310 -123 -435z" />
<glyph unicode="R" d="M45 89l15 142v125l3 107v167l-10 149l-4 146l-4 188v252l15 15l-15 15v15q0 91 355 163q467 0 694 -297l15 -74v-89q-56 -155 -222 -282q-280 -149 -340 -149v-14q311 -408 311 -520q12 -41 12 -72q0 -98 -117 -97h-13q-164 80 -229 303l-200 311h-30l15 -14v-134 l15 -104h-15l30 -178q0 -132 -89 -178h-118q-74 33 -74 104zM281 903h15l75 -8l88 -7q384 130 384 301v31q-133 150 -325 150h-104q-133 0 -133 -150v-317z" />
<glyph unicode="S" horiz-adv-x="1154" d="M-37 263v45q0 26 121 76q200 -181 422 -181q211 60 211 150q0 157 -347 392q-241 191 -241 437q0 222 558 376q316 -33 316 -60l15 15h15l121 -91v-120q0 -34 -106 -60q-135 60 -256 75q-312 -10 -437 -196q0 -118 513 -497q105 -157 105 -346q0 -212 -497 -286 q-366 0 -513 271z" />
<glyph unicode="T" d="M-22 1379v90q0 44 129 44v15l43 -15l845 45q69 0 101 -89h14q0 -97 -86 -135h-14l-459 -15l-14 -15l14 -328v-74l-14 -75l14 -89v-179l-14 -15l14 -15v-60l-14 -15l14 -15l-14 -89l14 -89q-34 -254 -71 -254h-115q-78 0 -115 75v59q4 75 29 75l-14 15v15q57 221 57 492 l-14 15v15l14 59v30h-14l14 75v74l-14 298l-144 -14l-14 14l-14 -14h-15q-138 45 -143 89z" />
<glyph unicode="U" horiz-adv-x="1146" d="M1 923q48 545 127 545h63q127 0 127 -194q-63 -193 -63 -386v-70q68 -527 174 -527l79 -18q223 0 301 281l64 580l-16 386l79 53h16l16 -18l16 18h31q127 -108 127 -334h-16l16 -17v-18l-16 -17l16 -18l-16 -88v-123q0 -285 -47 -457l15 -17q-23 0 -63 -193 q-137 -299 -475 -299q-476 91 -476 422q-21 0 -31 123h15z" />
<glyph unicode="V" horiz-adv-x="1221" d="M22 1493v32l58 63h30q175 -35 175 -190l73 -473l117 -458l512 1010l117 16q102 -67 102 -142q-573 -1077 -629 -1311l-160 -47q-147 0 -147 347q-160 502 -248 1153z" />
<glyph unicode="W" horiz-adv-x="1551" d="M38 1514v30q29 59 88 59q175 0 175 -281q0 -136 102 -665q161 287 219 517l131 59q117 -72 117 -118q0 -352 88 -724h29q131 364 263 1005l73 44h29l146 -59q-365 -1349 -394 -1360q0 -51 -146 -74q-125 0 -292 680q-34 0 -132 -414q0 -123 -160 -148h-44l-15 15h-14 l-15 -15q-58 0 -131 666l-102 517l14 15z" />
<glyph unicode="X" horiz-adv-x="1303" d="M30 141v49l478 611q-319 572 -319 693l80 64h95q77 0 303 -515l16 -16h16l366 531h112q111 -40 111 -129v-16l-462 -628v-16q335 -576 335 -628l-16 -16l16 -16v-16q-8 -60 -112 -145l-16 17l-79 -17h-16q-83 0 -128 290l-159 306h-16q-392 -483 -446 -483h-32 q-86 0 -127 80z" />
<glyph unicode="Y" horiz-adv-x="1116" d="M0 1438q0 57 101 105q219 0 439 -512l84 -135q45 0 168 496q0 166 135 166q80 0 152 -120q0 -261 -455 -1310q0 -130 -186 -150q-101 22 -118 75v15l186 497z" />
<glyph unicode="Z" horiz-adv-x="1251" d="M37 126v16q547 692 740 1105l31 31h-31l-416 -31h-77q-170 41 -170 124q0 82 93 125l154 -16l432 47v-16l247 47q41 0 154 -140v-78q-108 -125 -633 -934l-92 -124v-31l632 78q99 -36 139 -125v-47q0 -31 -123 -109l-77 16q-469 0 -787 -109q-216 53 -216 171z" />
<glyph unicode="[" horiz-adv-x="644" d="M76 577q-53 586 101 1015l106 25h114l165 -23l16 -244l-221 -58q-68 -547 -60 -964l8 -203q-16 93 196 24q152 -75 3 -258q83 -75 -402 -25q-79 133 -26 711z" />
<glyph unicode="\" horiz-adv-x="1064" d="M53 1574q0 56 152 111l84 -14l303 -554q472 -1024 472 -1081v-41l-67 -70h-68q-82 25 -168 180q-388 929 -708 1469z" />
<glyph unicode="]" horiz-adv-x="569" d="M39 1287l16 241l165 22h113l107 -25q154 -423 101 -1002q53 -570 -26 -701q-486 -50 -403 24q-148 181 4 255q212 68 196 -24l8 201q8 411 -60 951z" />
<glyph unicode="^" horiz-adv-x="961" />
<glyph unicode="_" horiz-adv-x="929" d="M36 23h21l-21 14v13q13 41 166 41h145q559 0 559 -81v-40q-57 -82 -166 -82l-393 14l-114 15l59 -19q-256 33 -256 125z" />
<glyph unicode="`" horiz-adv-x="682" />
<glyph unicode="a" horiz-adv-x="959" d="M29 343v149q0 199 315 393l82 14q206 0 342 -203q31 0 68 -340q41 -127 82 -176v-149q-10 -40 -96 -68q-77 18 -164 122h-14q0 -34 -300 -81q-315 111 -315 339zM220 397q0 -125 151 -217q205 57 205 149l-14 14v13l14 14l-14 68v108q0 163 -95 163q-59 0 -178 -122 l-14 -14l-55 -122l14 -13v-14l-14 -13v-14z" />
<glyph unicode="b" horiz-adv-x="906" d="M31 1115q0 70 3 155l56 29q15 7 30 7q72 0 116 -178l13 -363l13 -13h12q130 130 244 130q208 0 358 -247l26 -77v-26q0 -236 -218 -402q-175 -130 -410 -130l-102 39l-13 -13h-13q-89 17 -89 91l-13 65h13l-13 13v12l13 13l-13 13v13l13 39l-13 13v13l13 39l-13 52l13 13 v13l-13 39l13 117l-13 64l13 52zM313 233q77 -9 77 -26q120 0 269 208l25 117q0 52 -115 155q-187 0 -256 -350v-104z" />
<glyph unicode="c" horiz-adv-x="861" d="M45 491q0 183 343 417l106 13h13q198 -52 198 -152l26 -50l-79 -64h-40q-75 64 -132 64q-170 -89 -224 -291q0 -253 224 -253v-13l304 63l66 -76v-38q-92 -126 -317 -126q-352 0 -462 278v13h14l-27 63l13 13z" />
<glyph unicode="d" horiz-adv-x="891" d="M30 404v96q0 178 328 386l82 14v-14l14 14h68l68 -14v14q30 242 75 477l147 40q23 -161 23 -303v-33q1 -15 -26 -429v-42l13 -68h-13l13 -14v-14l-13 -14l13 -14l-13 -41l68 -414q-35 -69 -109 -69h-69l-95 124q0 -37 -232 -55q-241 0 -328 290h13zM249 404 q0 -83 109 -180h27q105 0 178 111l-14 13l27 97l-13 55l13 14q-13 179 -54 179h-14q-259 -90 -259 -289z" />
<glyph unicode="e" horiz-adv-x="959" d="M34 431q-1 15 -1 30q0 231 232 365q187 82 366 83q161 -23 313 -318v-55l-69 -96l-222 14q-374 -14 -374 -69l-14 -14q50 -207 194 -207l305 42q62 -36 69 -111q-32 -31 -55 -55l-208 -55v14l-14 -14h-55q-324 0 -429 262zM352 636l81 7l239 14v14l-56 56q-23 1 -45 1 q-146 0 -188 -48z" />
<glyph unicode="f" horiz-adv-x="966" d="M22 604q-11 38 -11 67q0 87 102 87h4q0 414 300 632q131 86 237 86q194 0 269 -137l13 -19v-35l-13 -31l-28 -30l-35 -22l-174 17q-232 0 -332 -410v-17l116 6l247 11q174 0 174 -171l-95 -85h-252l-190 -17l79 -462q-24 0 -48 -68l-15 -17h-16l-47 -19l-48 19 q-107 0 -107 99l1 74l-5 66v17q0 308 -110 308z" />
<glyph unicode="g" horiz-adv-x="975" d="M23 422v28q0 295 406 411h33q280 0 395 -170l11 -57v-57l16 -70l11 -97l55 -459q1 -11 1 -22q0 -247 -327 -358h-244q-243 0 -243 142l-3 4l3 10v15l77 44l280 -30q117 0 179 198l-17 43l17 13v15l-17 85h-32q-37 -32 -195 -57l-65 -1l-101 20q-240 123 -240 350z M257 416q37 -150 87 -150h15q107 0 204 82q-11 273 -102 273q-144 0 -204 -205z" />
<glyph unicode="h" horiz-adv-x="899" d="M23 1007q-9 61 -9 111q0 193 134 223q117 -26 117 -325q0 -63 -5 -138l14 -186h14q83 172 292 172q265 -58 265 -515l28 -243q0 -92 -125 -114q-140 0 -140 114v229q0 161 -42 286q-135 0 -208 -314l-4 -40l-12 -41l1 -34l5 -84q-22 -79 -102 -116h-14l-11 -9l-17 9h-14 q-111 0 -125 157h14l-14 14v15q3 71 28 71l-14 43l14 14z" />
<glyph unicode="i" horiz-adv-x="382" d="M60 585l16 14v14l-16 15q0 202 141 202h32l103 -86l-9 -131l63 -549l-94 -72h-63q-91 0 -142 101l16 15l-16 14l16 72v15zM91 1090v44q40 72 142 72q94 -66 94 -173l-63 -44q-173 0 -173 101z" />
<glyph unicode="j" horiz-adv-x="682" d="M61 -181q0 55 44 106q46 0 204 -145h44q43 143 43 343l-14 40h14q-14 151 -131 475q0 103 88 133h29q182 0 247 -608v-67l15 -52q-29 -383 -102 -383q0 -66 -248 -80q-233 60 -233 212v26zM265 1022q36 79 131 79h15q102 -48 102 -93q-29 -92 -117 -92q-131 24 -131 106z " />
<glyph unicode="k" horiz-adv-x="944" d="M75 1106l15 238q71 94 147 94h15l88 -94l-15 -317v-268q248 213 278 269q100 157 173 157q15 0 28 -6q16 9 32 9q51 0 93 -97q-87 -202 -398 -443v-32q265 -241 346 -488l29 -71l-15 -89l-73 -27l-97 15q-87 59 -145 264q-142 229 -236 253v-220l29 -127v-48l-73 -78 q-192 0 -192 142v15z" />
<glyph unicode="l" horiz-adv-x="509" d="M157 1114l4 37l-4 46v161q0 163 144 163q113 0 129 -244v-618q0 -395 64 -504v-82l-96 -81h-81q-128 0 -128 195l8 95l-24 426v32l-8 61l4 62l-4 50v69l-4 62z" />
<glyph unicode="m" horiz-adv-x="1214" d="M15 847l83 90h56q24 0 110 -135q81 72 153 75q92 0 249 -225h14q104 195 208 195q277 0 277 -464v-45l14 -60l-14 -15l28 -225q-4 -38 -97 -105h-28q-80 0 -124 105l13 45l-41 509h-28q-138 -323 -138 -539l-56 -45h-41q-139 0 -139 165q-36 449 -111 449 q-62 0 -111 -359l14 -165q-19 -62 -69 -90q-113 0 -180 75l13 90z" />
<glyph unicode="n" horiz-adv-x="936" d="M30 812q0 77 85 132l14 -15l14 15h14q113 0 113 -234h14q145 234 310 234h113q211 -86 211 -542v-322q0 -117 -113 -117h-42q-56 30 -85 88v381q-8 292 -56 292q-150 0 -254 -424l-2 -59l-9 -50l11 -38l-14 -14v-15l-16 -60l-82 -71q-153 0 -153 56q0 6 2 13l-18 58 l-1 77v88z" />
<glyph unicode="o" horiz-adv-x="891" d="M16 413h14l-14 13v14q0 339 307 447q88 0 125 27q418 -199 418 -460q0 -461 -530 -461q-246 0 -320 420zM225 386q20 -217 153 -217q246 0 265 271q0 137 -223 271q-170 0 -195 -312v-13z" />
<glyph unicode="p" horiz-adv-x="860" d="M38 -356l40 416l-40 604v94q33 81 120 81l54 -14l200 27v-13l13 13q287 0 401 -255l13 -148v-13q0 -193 -347 -376l-134 -27v13l-13 -13h-40l-13 13h-14v-26l-26 -282l13 -121l-93 -54l-17 -2l-29 4l-35 -2zM246 594l40 -379h27v-14q175 47 283 190q3 54 27 54 q0 204 -242 204q-99 0 -135 -55z" />
<glyph unicode="q" horiz-adv-x="891" d="M23 372v39q62 435 466 435q341 -79 341 -171l-15 -132l31 -369l-16 -341l16 -198q-59 -40 -140 -40h-15q-109 0 -109 119v316h-16l-170 -14q-237 0 -357 224zM256 346q0 -158 186 -158q95 0 140 105l-16 158v105q0 69 -46 79h-16q-248 -39 -248 -237v-52z" />
<glyph unicode="r" horiz-adv-x="779" d="M31 763q0 109 104 109l93 -82q77 109 243 109h35l46 -14l12 14q208 -37 208 -164l-46 -54h-35l-220 27q-182 0 -208 -355l23 -286q0 -58 -116 -82h-23q-81 57 -81 82v27z" />
<glyph unicode="s" horiz-adv-x="749" d="M30 160q18 92 53 92h13l212 -118h27q112 0 159 79v26q-39 76 -371 317q-66 79 -80 185q0 143 318 158h120q103 0 145 -79v-53l-66 -66l-53 13q-238 0 -238 -39q25 -40 265 -185q139 -142 185 -224v-40q0 -229 -358 -264l-53 14l-13 -14h-13q-252 67 -252 198z" />
<glyph unicode="t" horiz-adv-x="891" d="M38 643q0 112 280 141l-14 16v251q0 282 70 282h70q85 -55 85 -141v-126l-14 -15l14 -16v-251h28l238 16q70 -63 70 -110q0 -90 -336 -141l56 -471q0 -62 -183 -78q-46 0 -84 549h-42l-70 -16v16l-14 -16h-14q-140 0 -140 110z" />
<glyph unicode="u" horiz-adv-x="846" d="M38 570q25 352 131 352h43l88 -96l-15 -304q23 -320 87 -320h29q189 60 189 352l-29 272l88 64q107 0 159 -160h-14l29 -112h-15l15 -16v-144q0 -338 -334 -464l-102 -16q-301 0 -349 592z" />
<glyph unicode="v" horiz-adv-x="846" d="M30 792h12l-12 13v27q31 67 98 67q127 0 172 -360q21 0 49 -200l12 -13h13q180 306 282 586q45 40 86 40l12 -13l12 13q74 -90 74 -120q-105 -304 -417 -826l-49 -13h-25q-100 0 -123 93z" />
<glyph unicode="w" horiz-adv-x="1041" d="M75 790l70 64q101 -15 132 -164l12 -65h-12l12 -14v-92h13l99 211l75 39q124 -43 124 -144q25 -201 62 -303h25q123 580 261 580h6l19 -1l18 -7l12 -9q12 -10 32 -63q-87 -211 -208 -744l-77 -79q-194 3 -299 310h-13q-24 -290 -136 -290h-13q-149 0 -158 234 q-47 195 -56 537z" />
<glyph unicode="x" horiz-adv-x="831" d="M30 108q26 98 230 319q-153 221 -153 393v25q0 29 107 61q134 0 200 -282h31q93 138 200 208h30q154 -20 154 -110l-277 -295l277 -319v-49l-92 -74q-161 0 -215 147l-123 123q-127 -123 -131 -189l-32 -39q-6 -17 -37 -17l-36 -6h-19l-22 6q-92 25 -92 98z" />
<glyph unicode="y" horiz-adv-x="932" d="M37 722q0 45 84 83q181 0 362 -403l70 -106q37 0 139 391q0 130 112 130q65 0 125 -95q0 -205 -376 -1030q0 -103 -154 -119q-83 17 -97 60v12l153 390z" />
<glyph unicode="z" horiz-adv-x="899" d="M49 136q379 457 430 567l-218 -12l-173 12v68q0 121 305 121l62 14v-14l12 14l61 -14h183q85 -60 85 -135v-14l-439 -528v-13h342l61 13v-13l36 13q64 0 98 -67v-82q-68 -54 -366 -54h-159l-281 -27l-12 14l-12 -14q-29 43 -29 87q0 32 14 64z" />
<glyph unicode="{" horiz-adv-x="684" />
<glyph unicode="|" horiz-adv-x="532" />
<glyph unicode="}" horiz-adv-x="684" />
<glyph unicode="~" horiz-adv-x="1196" d="M42 621l9 53q42 82 193 128l370 -165q148 55 289 193l55 -69q-109 -228 -303 -307l-117 7l-130 84l-131 55q-105 -56 -189 -73l-35 31z" />
<glyph unicode="&#xa1;" horiz-adv-x="682" />
<glyph unicode="&#xa2;" />
<glyph unicode="&#xa3;" />
<glyph unicode="&#xa4;" />
<glyph unicode="&#xa5;" />
<glyph unicode="&#xa6;" horiz-adv-x="532" />
<glyph unicode="&#xa7;" />
<glyph unicode="&#xa8;" horiz-adv-x="682" />
<glyph unicode="&#xa9;" horiz-adv-x="1509" />
<glyph unicode="&#xaa;" horiz-adv-x="758" />
<glyph unicode="&#xab;" />
<glyph unicode="&#xac;" horiz-adv-x="1196" />
<glyph unicode="&#xad;" horiz-adv-x="637" d="M59 664h13l-13 14v14q8 42 101 42h89q342 0 342 -84v-42q-35 -84 -101 -84l-241 14l-13 -14h-12q-165 44 -165 140z" />
<glyph unicode="&#xae;" horiz-adv-x="1509" />
<glyph unicode="&#xaf;" horiz-adv-x="1131" />
<glyph unicode="&#xb0;" horiz-adv-x="819" />
<glyph unicode="&#xb1;" horiz-adv-x="1124" />
<glyph unicode="&#xb2;" horiz-adv-x="682" />
<glyph unicode="&#xb3;" horiz-adv-x="682" />
<glyph unicode="&#xb4;" horiz-adv-x="682" />
<glyph unicode="&#xb5;" horiz-adv-x="1180" />
<glyph unicode="&#xb6;" horiz-adv-x="1100" />
<glyph unicode="&#xb7;" horiz-adv-x="569" />
<glyph unicode="&#x2219;" horiz-adv-x="569" />
<glyph unicode="&#xb8;" horiz-adv-x="682" />
<glyph unicode="&#xb9;" horiz-adv-x="682" />
<glyph unicode="&#xba;" horiz-adv-x="748" />
<glyph unicode="&#xbb;" />
<glyph unicode="&#xbc;" horiz-adv-x="1708" />
<glyph unicode="&#xbd;" horiz-adv-x="1708" />
<glyph unicode="&#xbe;" horiz-adv-x="1708" />
<glyph unicode="&#xbf;" horiz-adv-x="1251" />
<glyph unicode="&#xc0;" horiz-adv-x="1366" />
<glyph unicode="&#xc1;" horiz-adv-x="1366" />
<glyph unicode="&#xc2;" horiz-adv-x="1366" />
<glyph unicode="&#xc3;" horiz-adv-x="1366" />
<glyph unicode="&#xc4;" horiz-adv-x="1366" />
<glyph unicode="&#xc5;" horiz-adv-x="1366" />
<glyph unicode="&#xc6;" horiz-adv-x="2048" />
<glyph unicode="&#xc7;" horiz-adv-x="1479" />
<glyph unicode="&#xc8;" horiz-adv-x="1366" />
<glyph unicode="&#xc9;" horiz-adv-x="1366" />
<glyph unicode="&#xca;" horiz-adv-x="1366" />
<glyph unicode="&#xcb;" horiz-adv-x="1366" />
<glyph unicode="&#xcc;" horiz-adv-x="569" />
<glyph unicode="&#xcd;" horiz-adv-x="569" />
<glyph unicode="&#xce;" horiz-adv-x="569" />
<glyph unicode="&#xcf;" horiz-adv-x="569" />
<glyph unicode="&#xd0;" horiz-adv-x="1479" />
<glyph unicode="&#xd1;" horiz-adv-x="1479" />
<glyph unicode="&#xd2;" horiz-adv-x="1593" />
<glyph unicode="&#xd3;" horiz-adv-x="1593" />
<glyph unicode="&#xd4;" horiz-adv-x="1593" />
<glyph unicode="&#xd5;" horiz-adv-x="1593" />
<glyph unicode="&#xd6;" horiz-adv-x="1593" />
<glyph unicode="&#xd7;" horiz-adv-x="1196" />
<glyph unicode="&#xd8;" horiz-adv-x="1593" />
<glyph unicode="&#xd9;" horiz-adv-x="1479" />
<glyph unicode="&#xda;" horiz-adv-x="1479" />
<glyph unicode="&#xdb;" horiz-adv-x="1479" />
<glyph unicode="&#xdc;" horiz-adv-x="1479" />
<glyph unicode="&#xdd;" horiz-adv-x="1366" />
<glyph unicode="&#xde;" horiz-adv-x="1366" />
<glyph unicode="&#xdf;" horiz-adv-x="1251" />
<glyph unicode="&#xe0;" />
<glyph unicode="&#xe1;" />
<glyph unicode="&#xe2;" />
<glyph unicode="&#xe3;" />
<glyph unicode="&#xe4;" />
<glyph unicode="&#xe5;" />
<glyph unicode="&#xe6;" horiz-adv-x="1821" />
<glyph unicode="&#xe7;" horiz-adv-x="1024" />
<glyph unicode="&#xe8;" />
<glyph unicode="&#xe9;" />
<glyph unicode="&#xea;" />
<glyph unicode="&#xeb;" />
<glyph unicode="&#xec;" horiz-adv-x="569" />
<glyph unicode="&#xed;" horiz-adv-x="569" />
<glyph unicode="&#xee;" horiz-adv-x="569" />
<glyph unicode="&#xef;" horiz-adv-x="569" />
<glyph unicode="&#xf0;" />
<glyph unicode="&#xf1;" />
<glyph unicode="&#xf2;" />
<glyph unicode="&#xf3;" />
<glyph unicode="&#xf4;" />
<glyph unicode="&#xf5;" />
<glyph unicode="&#xf6;" />
<glyph unicode="&#xf7;" horiz-adv-x="1124" />
<glyph unicode="&#xf8;" horiz-adv-x="1251" />
<glyph unicode="&#xf9;" />
<glyph unicode="&#xfa;" />
<glyph unicode="&#xfb;" />
<glyph unicode="&#xfc;" />
<glyph unicode="&#xfd;" horiz-adv-x="1024" />
<glyph unicode="&#xfe;" />
<glyph unicode="&#xff;" horiz-adv-x="1024" />
<glyph unicode="&#x152;" horiz-adv-x="2048" />
<glyph unicode="&#x153;" horiz-adv-x="1933" />
<glyph unicode="&#x178;" horiz-adv-x="1366" />
<glyph unicode="&#x2c6;" horiz-adv-x="682" />
<glyph unicode="&#x2dc;" horiz-adv-x="682" />
<glyph unicode="&#x2000;" horiz-adv-x="843" />
<glyph unicode="&#x2001;" horiz-adv-x="1686" />
<glyph unicode="&#x2002;" horiz-adv-x="843" />
<glyph unicode="&#x2003;" horiz-adv-x="1686" />
<glyph unicode="&#x2004;" horiz-adv-x="562" />
<glyph unicode="&#x2005;" horiz-adv-x="421" />
<glyph unicode="&#x2006;" horiz-adv-x="281" />
<glyph unicode="&#x2007;" horiz-adv-x="281" />
<glyph unicode="&#x2008;" horiz-adv-x="210" />
<glyph unicode="&#x2009;" horiz-adv-x="337" />
<glyph unicode="&#x200a;" horiz-adv-x="93" />
<glyph unicode="&#x2010;" horiz-adv-x="637" d="M59 664h13l-13 14v14q8 42 101 42h89q342 0 342 -84v-42q-35 -84 -101 -84l-241 14l-13 -14h-12q-165 44 -165 140z" />
<glyph unicode="&#x2011;" horiz-adv-x="637" d="M59 664h13l-13 14v14q8 42 101 42h89q342 0 342 -84v-42q-35 -84 -101 -84l-241 14l-13 -14h-12q-165 44 -165 140z" />
<glyph unicode="&#x2012;" horiz-adv-x="637" d="M59 664h13l-13 14v14q8 42 101 42h89q342 0 342 -84v-42q-35 -84 -101 -84l-241 14l-13 -14h-12q-165 44 -165 140z" />
<glyph unicode="&#x2013;" />
<glyph unicode="&#x2014;" horiz-adv-x="2048" />
<glyph unicode="&#x2018;" horiz-adv-x="455" />
<glyph unicode="&#x2019;" horiz-adv-x="455" />
<glyph unicode="&#x201a;" horiz-adv-x="455" />
<glyph unicode="&#x201c;" horiz-adv-x="682" />
<glyph unicode="&#x201d;" horiz-adv-x="682" />
<glyph unicode="&#x201e;" horiz-adv-x="682" />
<glyph unicode="&#x2022;" horiz-adv-x="717" />
<glyph unicode="&#x2026;" horiz-adv-x="2048" />
<glyph unicode="&#x202f;" horiz-adv-x="337" />
<glyph unicode="&#x2039;" horiz-adv-x="682" />
<glyph unicode="&#x203a;" horiz-adv-x="682" />
<glyph unicode="&#x205f;" horiz-adv-x="421" />
<glyph unicode="&#x20ac;" />
<glyph unicode="&#x2122;" horiz-adv-x="2048" />
<glyph unicode="&#xe000;" horiz-adv-x="905" d="M0 905h905v-905h-905v905z" />
<glyph unicode="&#xf001;" horiz-adv-x="1024" />
<glyph unicode="&#xfb01;" horiz-adv-x="1024" />
<glyph unicode="&#xf002;" horiz-adv-x="1024" />
<glyph unicode="&#xfb02;" horiz-adv-x="1024" />
<glyph unicode="&#xfb03;" horiz-adv-x="2314" d="M1992 585l16 14v14l-16 15q0 202 141 202h32l103 -86l-9 -131l63 -549l-94 -72h-63q-91 0 -142 101l16 15l-16 14l16 72v15zM2023 1090v44q40 72 142 72q94 -66 94 -173l-63 -44q-173 0 -173 101zM988 604q-11 38 -11 67q0 87 102 87h4q0 414 300 632q131 86 237 86 q194 0 269 -137l13 -19v-35l-13 -31l-28 -30l-35 -22l-174 17q-232 0 -332 -410v-17l116 6l247 11q174 0 174 -171l-95 -85h-252l-190 -17l79 -462q-24 0 -48 -68l-15 -17h-16l-47 -19l-48 19q-107 0 -107 99l1 74l-5 66v17q0 308 -110 308zM22 604q-11 38 -11 67 q0 87 102 87h4q0 414 300 632q131 86 237 86q194 0 269 -137l13 -19v-35l-13 -31l-28 -30l-35 -22l-174 17q-232 0 -332 -410v-17l116 6l247 11q174 0 174 -171l-95 -85h-252l-190 -17l79 -462q-24 0 -48 -68l-15 -17h-16l-47 -19l-48 19q-107 0 -107 99l1 74l-5 66v17 q0 308 -110 308z" />
<glyph unicode="&#xfb04;" horiz-adv-x="2441" d="M2089 1114l4 37l-4 46v161q0 163 144 163q113 0 129 -244v-618q0 -395 64 -504v-82l-96 -81h-81q-128 0 -128 195l8 95l-24 426v32l-8 61l4 62l-4 50v69l-4 62zM988 604q-11 38 -11 67q0 87 102 87h4q0 414 300 632q131 86 237 86q194 0 269 -137l13 -19v-35l-13 -31 l-28 -30l-35 -22l-174 17q-232 0 -332 -410v-17l116 6l247 11q174 0 174 -171l-95 -85h-252l-190 -17l79 -462q-24 0 -48 -68l-15 -17h-16l-47 -19l-48 19q-107 0 -107 99l1 74l-5 66v17q0 308 -110 308zM22 604q-11 38 -11 67q0 87 102 87h4q0 414 300 632q131 86 237 86 q194 0 269 -137l13 -19v-35l-13 -31l-28 -30l-35 -22l-174 17q-232 0 -332 -410v-17l116 6l247 11q174 0 174 -171l-95 -85h-252l-190 -17l79 -462q-24 0 -48 -68l-15 -17h-16l-47 -19l-48 19q-107 0 -107 99l1 74l-5 66v17q0 308 -110 308z" />
</font>
</defs>
</svg>
